<mxfile host="app.diagrams.net" modified="2024-07-07T20:48:23.364Z" agent="Mozilla/5.0 (Macintosh; Intel Mac OS X 10.15; rv:127.0) Gecko/20100101 Firefox/127.0" etag="4s4iIK2oSaJJIMWwPSi0" version="24.6.4" type="device">
  <diagram name="Cas_utilisation" id="xDbENkprS_1ejMvTOHjA">
    <mxGraphModel dx="1553" dy="1028" grid="1" gridSize="10" guides="1" tooltips="1" connect="1" arrows="1" fold="1" page="1" pageScale="1" pageWidth="827" pageHeight="1169" math="0" shadow="0">
      <root>
        <mxCell id="0" />
        <mxCell id="1" parent="0" />
        <mxCell id="JGfCC4oR_hbqrLKbmae9-2" value="Utilisateur&lt;br&gt;Admnistrateur" style="shape=umlActor;verticalLabelPosition=bottom;verticalAlign=top;html=1;outlineConnect=0;" vertex="1" parent="1">
          <mxGeometry x="616" y="770" width="50" height="100" as="geometry" />
        </mxCell>
        <mxCell id="JGfCC4oR_hbqrLKbmae9-3" value="System" style="text;html=1;strokeColor=none;fillColor=none;align=center;verticalAlign=middle;whiteSpace=wrap;rounded=0;" vertex="1" parent="1">
          <mxGeometry x="1806" y="490" width="60" height="30" as="geometry" />
        </mxCell>
        <mxCell id="JGfCC4oR_hbqrLKbmae9-8" value="Poster une tâche" style="ellipse;whiteSpace=wrap;html=1;" vertex="1" parent="1">
          <mxGeometry x="1524" y="620" width="170" height="80" as="geometry" />
        </mxCell>
        <mxCell id="JGfCC4oR_hbqrLKbmae9-9" value="Modifier une tâche" style="ellipse;whiteSpace=wrap;html=1;" vertex="1" parent="1">
          <mxGeometry x="1524" y="840" width="170" height="80" as="geometry" />
        </mxCell>
        <mxCell id="JGfCC4oR_hbqrLKbmae9-10" value="" style="endArrow=classic;html=1;rounded=0;exitX=0.5;exitY=1;exitDx=0;exitDy=0;" edge="1" parent="1" source="JGfCC4oR_hbqrLKbmae9-13" target="JGfCC4oR_hbqrLKbmae9-9">
          <mxGeometry width="50" height="50" relative="1" as="geometry">
            <mxPoint x="1074" y="750" as="sourcePoint" />
            <mxPoint x="1279" y="810" as="targetPoint" />
          </mxGeometry>
        </mxCell>
        <mxCell id="JGfCC4oR_hbqrLKbmae9-11" value="Supprimer une tâche" style="ellipse;whiteSpace=wrap;html=1;" vertex="1" parent="1">
          <mxGeometry x="1524" y="730" width="170" height="80" as="geometry" />
        </mxCell>
        <mxCell id="JGfCC4oR_hbqrLKbmae9-12" value="" style="endArrow=classic;html=1;rounded=0;exitX=0.5;exitY=1;exitDx=0;exitDy=0;" edge="1" parent="1" source="JGfCC4oR_hbqrLKbmae9-13" target="JGfCC4oR_hbqrLKbmae9-11">
          <mxGeometry width="50" height="50" relative="1" as="geometry">
            <mxPoint x="1184" y="870" as="sourcePoint" />
            <mxPoint x="1234" y="820" as="targetPoint" />
          </mxGeometry>
        </mxCell>
        <mxCell id="JGfCC4oR_hbqrLKbmae9-13" value="S&#39;authentifier" style="ellipse;whiteSpace=wrap;html=1;" vertex="1" parent="1">
          <mxGeometry x="1014" y="510" width="170" height="80" as="geometry" />
        </mxCell>
        <mxCell id="JGfCC4oR_hbqrLKbmae9-14" value="" style="endArrow=none;html=1;rounded=0;exitX=0.5;exitY=0.5;exitDx=0;exitDy=0;exitPerimeter=0;entryX=0;entryY=0.5;entryDx=0;entryDy=0;" edge="1" parent="1" source="JGfCC4oR_hbqrLKbmae9-2" target="JGfCC4oR_hbqrLKbmae9-13">
          <mxGeometry width="50" height="50" relative="1" as="geometry">
            <mxPoint x="892" y="761" as="sourcePoint" />
            <mxPoint x="1157" y="922" as="targetPoint" />
          </mxGeometry>
        </mxCell>
        <mxCell id="JGfCC4oR_hbqrLKbmae9-15" value="" style="endArrow=none;html=1;rounded=0;exitX=1;exitY=0.5;exitDx=0;exitDy=0;entryX=0;entryY=0.5;entryDx=0;entryDy=0;" edge="1" parent="1" source="JGfCC4oR_hbqrLKbmae9-13" target="JGfCC4oR_hbqrLKbmae9-17">
          <mxGeometry width="50" height="50" relative="1" as="geometry">
            <mxPoint x="1334" y="790" as="sourcePoint" />
            <mxPoint x="1504" y="620" as="targetPoint" />
          </mxGeometry>
        </mxCell>
        <mxCell id="JGfCC4oR_hbqrLKbmae9-16" value="&amp;lt;&amp;lt; extend &amp;gt;&amp;gt;" style="edgeLabel;html=1;align=center;verticalAlign=middle;resizable=0;points=[];" vertex="1" connectable="0" parent="JGfCC4oR_hbqrLKbmae9-15">
          <mxGeometry x="0.0087" y="-3" relative="1" as="geometry">
            <mxPoint x="-2" y="-17" as="offset" />
          </mxGeometry>
        </mxCell>
        <mxCell id="JGfCC4oR_hbqrLKbmae9-17" value="S&#39;inscrire" style="ellipse;whiteSpace=wrap;html=1;" vertex="1" parent="1">
          <mxGeometry x="1524" y="510" width="170" height="80" as="geometry" />
        </mxCell>
        <mxCell id="JGfCC4oR_hbqrLKbmae9-20" value="" style="endArrow=classic;html=1;rounded=0;entryX=0;entryY=0;entryDx=0;entryDy=0;exitX=0.5;exitY=1;exitDx=0;exitDy=0;" edge="1" parent="1" source="JGfCC4oR_hbqrLKbmae9-13" target="JGfCC4oR_hbqrLKbmae9-8">
          <mxGeometry width="50" height="50" relative="1" as="geometry">
            <mxPoint x="1266" y="610" as="sourcePoint" />
            <mxPoint x="1520" y="759" as="targetPoint" />
          </mxGeometry>
        </mxCell>
        <mxCell id="JGfCC4oR_hbqrLKbmae9-24" value="Valider une tâche" style="ellipse;whiteSpace=wrap;html=1;" vertex="1" parent="1">
          <mxGeometry x="1296" y="840" width="170" height="80" as="geometry" />
        </mxCell>
        <mxCell id="JGfCC4oR_hbqrLKbmae9-25" value="" style="endArrow=classic;html=1;rounded=0;exitX=0.5;exitY=1;exitDx=0;exitDy=0;" edge="1" parent="1" source="JGfCC4oR_hbqrLKbmae9-13" target="JGfCC4oR_hbqrLKbmae9-24">
          <mxGeometry width="50" height="50" relative="1" as="geometry">
            <mxPoint x="1068" y="600" as="sourcePoint" />
            <mxPoint x="1244" y="852" as="targetPoint" />
          </mxGeometry>
        </mxCell>
        <mxCell id="JGfCC4oR_hbqrLKbmae9-26" value="" style="endArrow=classic;html=1;rounded=0;exitX=0.515;exitY=1.024;exitDx=0;exitDy=0;exitPerimeter=0;entryX=0.475;entryY=0.002;entryDx=0;entryDy=0;entryPerimeter=0;" edge="1" parent="1" source="JGfCC4oR_hbqrLKbmae9-13" target="JGfCC4oR_hbqrLKbmae9-27">
          <mxGeometry width="50" height="50" relative="1" as="geometry">
            <mxPoint x="1052" y="600" as="sourcePoint" />
            <mxPoint x="1299" y="854" as="targetPoint" />
          </mxGeometry>
        </mxCell>
        <mxCell id="JGfCC4oR_hbqrLKbmae9-27" value="Créer un utilisateur" style="ellipse;whiteSpace=wrap;html=1;" vertex="1" parent="1">
          <mxGeometry x="1086" y="840" width="170" height="80" as="geometry" />
        </mxCell>
        <mxCell id="JGfCC4oR_hbqrLKbmae9-28" value="Cas d&#39;utilisation" style="rounded=1;whiteSpace=wrap;html=1;" vertex="1" parent="1">
          <mxGeometry x="1071" y="430" width="340" height="60" as="geometry" />
        </mxCell>
      </root>
    </mxGraphModel>
  </diagram>
</mxfile>
